#tb 0: 1/25
#media_type 0: video
#codec_id 0: rawvideo
#dimensions 0: 176x144
#sar 0: 0/1
0,          0,          0,        1,    38016, 0xc805351d
0,          1,          1,        1,    38016, 0x320510a8
0,          2,          2,        1,    38016, 0x3ef6e4c6
0,          3,          3,        1,    38016, 0x3b94c5e0
0,          4,          4,        1,    38016, 0x4be4a689
0,          5,          5,        1,    38016, 0x70919210
0,          6,          6,        1,    38016, 0x78a07b5a
0,          7,          7,        1,    38016, 0x8bd86efc
0,          8,          8,        1,    38016, 0xe3976cab
0,          9,          9,        1,    38016, 0x77fa735e
0,         10,         10,        1,    38016, 0x62488adb
0,         11,         11,        1,    38016, 0x5b07a6a4
0,         12,         12,        1,    38016, 0x7058b15f
0,         13,         13,        1,    38016, 0xa22dc9e2
0,         14,         14,        1,    38016, 0xc9d5cae3
0,         15,         15,        1,    38016, 0x16cbd6e1
0,         16,         16,        1,    38016, 0x4b23d9e9
0,         17,         17,        1,    38016, 0x96f7d798
0,         18,         18,        1,    38016, 0xdbcdcfdd
0,         19,         19,        1,    38016, 0x9314b847
0,         20,         20,        1,    38016, 0x0a209c28
0,         21,         21,        1,    38016, 0x6c757322
0,         22,         22,        1,    38016, 0x3d1a6376
0,         23,         23,        1,    38016, 0x155f5df7
0,         24,         24,        1,    38016, 0xd4446441
0,         25,         25,        1,    38016, 0xe1006713
0,         26,         26,        1,    38016, 0x5d226a3e
0,         27,         27,        1,    38016, 0xe839790c
0,         28,         28,        1,    38016, 0xa28c8b9a
0,         29,         29,        1,    38016, 0xde469f7a
0,         30,         30,        1,    38016, 0xf800b7ad
0,         31,         31,        1,    38016, 0xf2f9ccac
0,         32,         32,        1,    38016, 0x60feeb52
0,         33,         33,        1,    38016, 0xad39fd4f
0,         34,         34,        1,    38016, 0x4075fce6
0,         35,         35,        1,    38016, 0x5f2f036e
0,         36,         36,        1,    38016, 0x3e180450
0,         37,         37,        1,    38016, 0xd806fc04
0,         38,         38,        1,    38016, 0x3f15fbc6
0,         39,         39,        1,    38016, 0xb881faa4
0,         40,         40,        1,    38016, 0xf1cafdc8
0,         41,         41,        1,    38016, 0xd881f881
0,         42,         42,        1,    38016, 0x6314fdc8
0,         43,         43,        1,    38016, 0x8fa6f0d3
0,         44,         44,        1,    38016, 0x90d0f40d
0,         45,         45,        1,    38016, 0x1d30ee93
0,         46,         46,        1,    38016, 0x87f6ecca
0,         47,         47,        1,    38016, 0xca9ae712
0,         48,         48,        1,    38016, 0x02c6eb47
0,         49,         49,        1,    38016, 0xc263f492
0,         50,         50,        1,    38016, 0x717def51
0,         51,         51,        1,    38016, 0x0d3af240
0,         52,         52,        1,    38016, 0xc232ea7d
0,         53,         53,        1,    38016, 0x3c41f195
0,         54,         54,        1,    38016, 0x5d77f7fb
0,         55,         55,        1,    38016, 0x2901fb90
0,         56,         56,        1,    38016, 0x3b35033e
0,         57,         57,        1,    38016, 0xca4d034f
0,         58,         58,        1,    38016, 0x1e730e22
0,         59,         59,        1,    38016, 0x69b60d52
0,         60,         60,        1,    38016, 0xe50107bc
0,         61,         61,        1,    38016, 0x44b6f25f
0,         62,         62,        1,    38016, 0x222ebc66
0,         63,         63,        1,    38016, 0x165b7bca
0,         64,         64,        1,    38016, 0x12a37e44
0,         65,         65,        1,    38016, 0xcce9a1dc
0,         66,         66,        1,    38016, 0x273dd1a9
0,         67,         67,        1,    38016, 0x72b00e90
0,         68,         68,        1,    38016, 0x449a4fa6
0,         69,         69,        1,    38016, 0x203d8582
0,         70,         70,        1,    38016, 0x3fa7aaeb
0,         71,         71,        1,    38016, 0x0b47d491
0,         72,         72,        1,    38016, 0x1fa70639
0,         73,         73,        1,    38016, 0xf9fe391e
0,         74,         74,        1,    38016, 0x91c6786c
0,         75,         75,        1,    38016, 0x7ab99bb2
0,         76,         76,        1,    38016, 0x73f2c0f5
0,         77,         77,        1,    38016, 0xcffad748
0,         78,         78,        1,    38016, 0xe2b0ee34
0,         79,         79,        1,    38016, 0x6025f6d6
0,         80,         80,        1,    38016, 0xd722017c
0,         81,         81,        1,    38016, 0x321f0c24
0,         82,         82,        1,    38016, 0x336f0e81
0,         83,         83,        1,    38016, 0x783a012f
0,         84,         84,        1,    38016, 0x134cf484
0,         85,         85,        1,    38016, 0xec4bf2db
0,         86,         86,        1,    38016, 0xb481012e
0,         87,         87,        1,    38016, 0x76ff026c
0,         88,         88,        1,    38016, 0xaf3b102a
0,         89,         89,        1,    38016, 0x2eaf0bd6
0,         90,         90,        1,    38016, 0x39b8f833
0,         91,         91,        1,    38016, 0xe928d7ea
0,         92,         92,        1,    38016, 0xbe7ac2f8
0,         93,         93,        1,    38016, 0x3683b5c4
0,         94,         94,        1,    38016, 0xb3559d1c
0,         95,         95,        1,    38016, 0x73fb9f71
0,         96,         96,        1,    38016, 0x3e97b5aa
0,         97,         97,        1,    38016, 0x0c9dc525
0,         98,         98,        1,    38016, 0xecead941
0,         99,         99,        1,    38016, 0x4999e247
0,        100,        100,        1,    38016, 0x11ddea7c
0,        101,        101,        1,    38016, 0x4882cf24
0,        102,        102,        1,    38016, 0xae9ac0c6
0,        103,        103,        1,    38016, 0x4f88b589
0,        104,        104,        1,    38016, 0xc677d43f
0,        105,        105,        1,    38016, 0x5f46f219
0,        106,        106,        1,    38016, 0x5c1ffa13
0,        107,        107,        1,    38016, 0x162e11a3
0,        108,        108,        1,    38016, 0xd0b631d4
0,        109,        109,        1,    38016, 0x7133441a
0,        110,        110,        1,    38016, 0xbb085604
0,        111,        111,        1,    38016, 0x54a960d2
0,        112,        112,        1,    38016, 0xc0b468e7
0,        113,        113,        1,    38016, 0xe1ef485a
0,        114,        114,        1,    38016, 0x025f27e6
0,        115,        115,        1,    38016, 0x14da215e
0,        116,        116,        1,    38016, 0xe8f2394a
0,        117,        117,        1,    38016, 0x7c7a44e8
0,        118,        118,        1,    38016, 0xdb2e54c3
0,        119,        119,        1,    38016, 0xae5c5eee
0,        120,        120,        1,    38016, 0x74ae643f
0,        121,        121,        1,    38016, 0x70146b61
0,        122,        122,        1,    38016, 0x545c5265
0,        123,        123,        1,    38016, 0xe5a92556
0,        124,        124,        1,    38016, 0xf19e04e8
0,        125,        125,        1,    38016, 0xda51e574
0,        126,        126,        1,    38016, 0x4c17ded9
0,        127,        127,        1,    38016, 0x51fce958
0,        128,        128,        1,    38016, 0xae96fd16
0,        129,        129,        1,    38016, 0x7a610e32
0,        130,        130,        1,    38016, 0x06f31a06
0,        131,        131,        1,    38016, 0x658a1998
0,        132,        132,        1,    38016, 0xda370e80
0,        133,        133,        1,    38016, 0xe7a00dca
0,        134,        134,        1,    38016, 0xb07a0810
0,        135,        135,        1,    38016, 0x193c01a3
0,        136,        136,        1,    38016, 0xa700fd8f
0,        137,        137,        1,    38016, 0x8c14ed46
0,        138,        138,        1,    38016, 0xcd81dc72
0,        139,        139,        1,    38016, 0x67acd3bb
0,        140,        140,        1,    38016, 0x662cc586
0,        141,        141,        1,    38016, 0xa09ac106
0,        142,        142,        1,    38016, 0xf1abab73
0,        143,        143,        1,    38016, 0xfd9ba674
0,        144,        144,        1,    38016, 0x7686ae41
0,        145,        145,        1,    38016, 0x7185a2e9
0,        146,        146,        1,    38016, 0x2b5898da
0,        147,        147,        1,    38016, 0x3cdd6c42
0,        148,        148,        1,    38016, 0x0299414d
0,        149,        149,        1,    38016, 0x2b851a52
0,        150,        150,        1,    38016, 0x01c8ff7b
0,        151,        151,        1,    38016, 0x55d3f715
0,        152,        152,        1,    38016, 0xbe5ff38e
0,        153,        153,        1,    38016, 0xc31fe232
0,        154,        154,        1,    38016, 0x3201dc26
0,        155,        155,        1,    38016, 0xf8feed84
0,        156,        156,        1,    38016, 0x0a471009
0,        157,        157,        1,    38016, 0xef0d351d
0,        158,        158,        1,    38016, 0x79de6f09
0,        159,        159,        1,    38016, 0xa5039be4
0,        160,        160,        1,    38016, 0x4e1cafa6
0,        161,        161,        1,    38016, 0x2a71aea1
0,        162,        162,        1,    38016, 0xa99e9d08
0,        163,        163,        1,    38016, 0x80aa8a6a
0,        164,        164,        1,    38016, 0x9f287bb9
0,        165,        165,        1,    38016, 0x2ddc5ef7
0,        166,        166,        1,    38016, 0x31843470
0,        167,        167,        1,    38016, 0x08f3074e
0,        168,        168,        1,    38016, 0xa639e58d
0,        169,        169,        1,    38016, 0xcf31d61f
0,        170,        170,        1,    38016, 0x1ac7e986
0,        171,        171,        1,    38016, 0x9bbbfe98
0,        172,        172,        1,    38016, 0x3e0d0ce1
0,        173,        173,        1,    38016, 0x53240e4c
0,        174,        174,        1,    38016, 0xda6bf0d5
0,        175,        175,        1,    38016, 0x1701c355
0,        176,        176,        1,    38016, 0x572c8b1d
0,        177,        177,        1,    38016, 0x1f4f5a14
0,        178,        178,        1,    38016, 0x0fea3e61
0,        179,        179,        1,    38016, 0xa71c29ed
0,        180,        180,        1,    38016, 0xd3b218fb
0,        181,        181,        1,    38016, 0x228e05f8
0,        182,        182,        1,    38016, 0x4b8bfa9e
0,        183,        183,        1,    38016, 0x13d505ab
0,        184,        184,        1,    38016, 0xa58808b3
0,        185,        185,        1,    38016, 0x4b2a1329
0,        186,        186,        1,    38016, 0x13c63567
0,        187,        187,        1,    38016, 0x4ece56f8
0,        188,        188,        1,    38016, 0x934f67c3
0,        189,        189,        1,    38016, 0x2b606f56
0,        190,        190,        1,    38016, 0xba481841
0,        191,        191,        1,    38016, 0x1488ea11
0,        192,        192,        1,    38016, 0x066cefeb
0,        193,        193,        1,    38016, 0xb23105b7
0,        194,        194,        1,    38016, 0x64312267
0,        195,        195,        1,    38016, 0xd0cf6a37
0,        196,        196,        1,    38016, 0xb5a482c5
0,        197,        197,        1,    38016, 0x61289957
0,        198,        198,        1,    38016, 0x26a6ba47
0,        199,        199,        1,    38016, 0xb771d25e
0,        200,        200,        1,    38016, 0xedb5de8d
0,        201,        201,        1,    38016, 0x4fd2e829
0,        202,        202,        1,    38016, 0xbef3ef1f
0,        203,        203,        1,    38016, 0x5e0ef333
0,        204,        204,        1,    38016, 0x5081f460
0,        205,        205,        1,    38016, 0x6798fe84
0,        206,        206,        1,    38016, 0x28ce0078
0,        207,        207,        1,    38016, 0x9fb4f6a1
0,        208,        208,        1,    38016, 0x0a02e822
0,        209,        209,        1,    38016, 0x5615d41e
0,        210,        210,        1,    38016, 0x1a3bc214
0,        211,        211,        1,    38016, 0x5333b48a
0,        212,        212,        1,    38016, 0x646da3c9
0,        213,        213,        1,    38016, 0x024fa1b1
0,        214,        214,        1,    38016, 0x7b4892de
0,        215,        215,        1,    38016, 0x10ab8953
0,        216,        216,        1,    38016, 0x8aa28410
0,        217,        217,        1,    38016, 0xcbd185be
0,        218,        218,        1,    38016, 0xfa49818a
0,        219,        219,        1,    38016, 0x0f7a82d5
0,        220,        220,        1,    38016, 0xb86f716d
0,        221,        221,        1,    38016, 0xd22a6050
0,        222,        222,        1,    38016, 0x89a4520e
0,        223,        223,        1,    38016, 0x8a1147cf
0,        224,        224,        1,    38016, 0xa02a4196
0,        225,        225,        1,    38016, 0xece240f7
0,        226,        226,        1,    38016, 0xa5b940ff
0,        227,        227,        1,    38016, 0x9b274ce8
0,        228,        228,        1,    38016, 0xba0b68c7
0,        229,        229,        1,    38016, 0x39f28a91
0,        230,        230,        1,    38016, 0xc070af11
0,        231,        231,        1,    38016, 0x2a26d309
0,        232,        232,        1,    38016, 0xfa9afe77
0,        233,        233,        1,    38016, 0xe2f22ebf
0,        234,        234,        1,    38016, 0xf8ee4a45
0,        235,        235,        1,    38016, 0x14186047
0,        236,        236,        1,    38016, 0xe3407152
0,        237,        237,        1,    38016, 0xcef578b8
0,        238,        238,        1,    38016, 0x3fc06964
0,        239,        239,        1,    38016, 0xa7da3ade
0,        240,        240,        1,    38016, 0xa46d1b2b
0,        241,        241,        1,    38016, 0x14abfac5
0,        242,        242,        1,    38016, 0xbffbf269
0,        243,        243,        1,    38016, 0x1d9c3ade
0,        244,        244,        1,    38016, 0xc9c39c46
0,        245,        245,        1,    38016, 0x824afa80
0,        246,        246,        1,    38016, 0xc76611b8
0,        247,        247,        1,    38016, 0x31fce0d6
0,        248,        248,        1,    38016, 0x6740a03f
0,        249,        249,        1,    38016, 0x91d63134
0,        250,        250,        1,    38016, 0xb0f6cc86
0,        251,        251,        1,    38016, 0x3d878a14
0,        252,        252,        1,    38016, 0x1d008063
0,        253,        253,        1,    38016, 0xe47cd260
0,        254,        254,        1,    38016, 0x56503400
0,        255,        255,        1,    38016, 0xb201dc61
0,        256,        256,        1,    38016, 0xba42de1b
0,        257,        257,        1,    38016, 0x9c115ccb
0,        258,        258,        1,    38016, 0xe9be47d9
0,        259,        259,        1,    38016, 0xa7684b02
0,        260,        260,        1,    38016, 0xb4d74f42
0,        261,        261,        1,    38016, 0xbe006415
0,        262,        262,        1,    38016, 0xa30c7858
0,        263,        263,        1,    38016, 0x838f7f47
0,        264,        264,        1,    38016, 0xc1c28346
0,        265,        265,        1,    38016, 0xc7737219
0,        266,        266,        1,    38016, 0xa19a5fd5
0,        267,        267,        1,    38016, 0x56a64b00
0,        268,        268,        1,    38016, 0x6b672497
0,        269,        269,        1,    38016, 0x4cfafbe2
0,        270,        270,        1,    38016, 0xbe53d51b
0,        271,        271,        1,    38016, 0x4a86acc7
0,        272,        272,        1,    38016, 0x297288b0
0,        273,        273,        1,    38016, 0xd4bd2ec9
0,        274,        274,        1,    38016, 0x3697e2f6
0,        275,        275,        1,    38016, 0xa493d289
0,        276,        276,        1,    38016, 0xb2b9e324
0,        277,        277,        1,    38016, 0x998de275
0,        278,        278,        1,    38016, 0x422a10cb
0,        279,        279,        1,    38016, 0x845383b4
0,        280,        280,        1,    38016, 0xb4a72107
0,        281,        281,        1,    38016, 0x0e0eef6b
0,        282,        282,        1,    38016, 0xbd8bbd01
0,        283,        283,        1,    38016, 0x2f217c45
0,        284,        284,        1,    38016, 0xb3515be7
0,        285,        285,        1,    38016, 0xb633a542
0,        286,        286,        1,    38016, 0x7e7a7086
0,        287,        287,        1,    38016, 0xef64a834
0,        288,        288,        1,    38016, 0x7b81bdad
0,        289,        289,        1,    38016, 0x0fc7a7d2
0,        290,        290,        1,    38016, 0x9111351d
0,        291,        291,        1,    38016, 0x161c43dc
0,        292,        292,        1,    38016, 0x945fce2a
0,        293,        293,        1,    38016, 0x48780c38
0,        294,        294,        1,    38016, 0x28904d31
0,        295,        295,        1,    38016, 0x140d47d5
0,        296,        296,        1,    38016, 0x1f5e257c
0,        297,        297,        1,    38016, 0xb36a159c
0,        298,        298,        1,    38016, 0x85ad2465
0,        299,        299,        1,    38016, 0x973649e0
